<svg width="31" height="31" viewBox="0 0 31 31" fill="none" xmlns="http://www.w3.org/2000/svg">
<path d="M1.99968 17.0003H3.49968V27.5003C3.49968 29.1548 4.84518 30.5003 6.49968 30.5003H24.4997C26.1542 30.5003 27.4997 29.1548 27.4997 27.5003V17.0003H28.9997C29.2963 17.0002 29.5863 16.9122 29.8329 16.7474C30.0795 16.5826 30.2717 16.3483 30.3852 16.0743C30.4987 15.8002 30.5284 15.4987 30.4706 15.2078C30.4127 14.9168 30.2699 14.6496 30.0602 14.4398L16.5602 0.939802C16.421 0.800383 16.2557 0.689776 16.0737 0.61431C15.8917 0.538844 15.6967 0.5 15.4997 0.5C15.3027 0.5 15.1076 0.538844 14.9256 0.61431C14.7437 0.689776 14.5784 0.800383 14.4392 0.939802L0.93918 14.4398C0.729466 14.6496 0.586657 14.9168 0.528805 15.2078C0.470954 15.4987 0.500658 15.8002 0.614163 16.0743C0.727669 16.3483 0.919878 16.5826 1.16649 16.7474C1.41311 16.9122 1.70305 17.0002 1.99968 17.0003ZM12.4997 27.5003V20.0003H18.4997V27.5003H12.4997ZM15.4997 4.1213L24.4997 13.1213V20.0003L24.5012 27.5003H21.4997V20.0003C21.4997 18.3458 20.1542 17.0003 18.4997 17.0003H12.4997C10.8452 17.0003 9.49968 18.3458 9.49968 20.0003V27.5003H6.49968V13.1213L15.4997 4.1213Z" fill="white"/>
</svg>
