<svg width="50" height="50" viewBox="0 0 100 100" fill="currentColor" xmlns="http://www.w3.org/2000/svg">
<path d="M46.8591 0.971008C21.5061 0.971008 0.881104 21.596 0.881104 46.949C0.881104 72.302 21.5061 92.927 46.8591 92.927C72.2111 92.927 92.8361 72.302 92.8361 46.949C92.8361 21.596 72.2111 0.971008 46.8591 0.971008ZM46.8591 90.926C22.6091 90.926 2.8811 71.198 2.8811 46.948C2.8811 22.698 22.6091 2.97101 46.8591 2.97101C71.1081 2.97101 90.8361 22.699 90.8361 46.949C90.8361 71.199 71.1081 90.926 46.8591 90.926Z" fill="currentColor"/>
<path d="M61.343 19.212H52.525C45.331 19.212 39.253 26.049 39.253 34.143V37.393H32.252C31.9867 37.393 31.7324 37.4983 31.5448 37.6859C31.3573 37.8734 31.252 38.1278 31.252 38.393V49.303C31.252 49.5682 31.3573 49.8225 31.5448 50.0101C31.7324 50.1976 31.9867 50.303 32.252 50.303H39.253V73.928C39.253 74.1932 39.3583 74.4475 39.5458 74.6351C39.7334 74.8226 39.9877 74.928 40.253 74.928H50.435C50.7002 74.928 50.9545 74.8226 51.1421 74.6351C51.3296 74.4475 51.435 74.1932 51.435 73.928V50.304H61.344C61.6092 50.304 61.8635 50.1986 62.0511 50.0111C62.2386 49.8235 62.344 49.5692 62.344 49.304V38.394C62.344 38.1288 62.2386 37.8744 62.0511 37.6869C61.8635 37.4993 61.6092 37.394 61.344 37.394H51.435V34.049C51.435 32.777 52.199 32.121 52.525 32.121H61.343C61.6082 32.121 61.8625 32.0156 62.0501 31.8281C62.2376 31.6405 62.343 31.3862 62.343 31.121V20.212C62.343 19.9468 62.2376 19.6924 62.0501 19.5049C61.8625 19.3173 61.6082 19.212 61.343 19.212ZM60.343 30.121H52.525C51.033 30.121 49.435 31.699 49.435 34.049V38.394C49.435 38.6592 49.5403 38.9135 49.7278 39.1011C49.9154 39.2886 50.1697 39.394 50.435 39.394H60.344V48.304H50.435C50.1697 48.304 49.9154 48.4093 49.7278 48.5969C49.5403 48.7844 49.435 49.0388 49.435 49.304V72.929H41.253V49.304C41.253 49.0388 41.1476 48.7844 40.9601 48.5969C40.7725 48.4093 40.5182 48.304 40.253 48.304H33.252V39.394H40.253C40.5182 39.394 40.7725 39.2886 40.9601 39.1011C41.1476 38.9135 41.253 38.6592 41.253 38.394V34.144C41.253 27.135 46.415 21.213 52.525 21.213H60.343V30.121Z" fill="currentColor"/>
</svg>
