<svg width="26" height="26" viewBox="0 0 26 26" fill="none" xmlns="http://www.w3.org/2000/svg">
<path d="M2.875 0.625C1.64425 0.625 0.625 1.64425 0.625 2.875V23.125C0.625 24.3557 1.64425 25.375 2.875 25.375H23.125C24.3557 25.375 25.375 24.3557 25.375 23.125V2.875C25.375 1.64425 24.3557 0.625 23.125 0.625H2.875ZM2.875 2.875H23.125V23.125H17.2885V15.5312H20.2068L20.6286 12.1562H17.2896V9.976C17.2896 8.99275 17.5304 8.3245 18.9411 8.3245H20.7693V5.26562C20.4576 5.22625 19.3765 5.15987 18.1334 5.15987C15.5402 5.15987 13.774 6.72025 13.774 9.625V12.1562H10.8209V15.5312H13.7729V23.125H2.875V2.875Z" fill="white"/>
</svg>
