<svg width="30" height="30" viewBox="0 0 30 30" fill="none" xmlns="http://www.w3.org/2000/svg">
<path d="M1.5 13.5C1.5 7.8435 1.5 5.0145 3.258 3.258C5.0145 1.5 7.8435 1.5 13.5 1.5H16.5C22.1565 1.5 24.9855 1.5 26.742 3.258C28.5 5.0145 28.5 7.8435 28.5 13.5V16.5C28.5 22.1565 28.5 24.9855 26.742 26.742C24.9855 28.5 22.1565 28.5 16.5 28.5H13.5C7.8435 28.5 5.0145 28.5 3.258 26.742C1.5 24.9855 1.5 22.1565 1.5 16.5V13.5Z" stroke="white" stroke-width="2"/>
<path d="M21.75 10.5C22.9926 10.5 24 9.49264 24 8.25C24 7.00736 22.9926 6 21.75 6C20.5074 6 19.5 7.00736 19.5 8.25C19.5 9.49264 20.5074 10.5 21.75 10.5Z" fill="white"/>
<path d="M15 19.5C17.4853 19.5 19.5 17.4853 19.5 15C19.5 12.5147 17.4853 10.5 15 10.5C12.5147 10.5 10.5 12.5147 10.5 15C10.5 17.4853 12.5147 19.5 15 19.5Z" stroke="white" stroke-width="2"/>
</svg>
