<svg width="26" height="26" viewBox="0 0 26 26" fill="none" xmlns="http://www.w3.org/2000/svg">
<path d="M3.4375 0.625C2.69322 0.630302 1.98092 0.92832 1.45462 1.45462C0.92832 1.98092 0.630302 2.69322 0.625 3.4375V22.5625C0.625 24.1004 1.89963 25.375 3.4375 25.375H22.5625C24.1004 25.375 25.375 24.1004 25.375 22.5625V3.4375C25.375 1.89963 24.1004 0.625 22.5625 0.625H3.4375ZM3.4375 2.875H22.5625C22.8831 2.875 23.125 3.11687 23.125 3.4375V22.5625C23.1265 22.6368 23.113 22.7106 23.0853 22.7796C23.0576 22.8485 23.0162 22.9111 22.9637 22.9637C22.9111 23.0162 22.8485 23.0576 22.7796 23.0853C22.7106 23.113 22.6368 23.1265 22.5625 23.125H3.4375C3.36317 23.1267 3.28927 23.1133 3.22025 23.0856C3.15124 23.058 3.08856 23.0166 3.03599 22.964C2.98341 22.9114 2.94204 22.8488 2.91437 22.7797C2.8867 22.7107 2.87331 22.6368 2.875 22.5625V3.4375C2.875 3.11687 3.11687 2.875 3.4375 2.875ZM6.74275 4.80888C6.48494 4.80266 6.22849 4.84806 5.98849 4.94243C5.74849 5.03679 5.52978 5.1782 5.34524 5.35834C5.16071 5.53848 5.01406 5.75371 4.91394 5.99137C4.81381 6.22902 4.76223 6.4843 4.76223 6.74219C4.76223 7.00007 4.81381 7.25535 4.91394 7.49301C5.01406 7.73067 5.16071 7.94589 5.34524 8.12603C5.52978 8.30617 5.74849 8.44759 5.98849 8.54195C6.22849 8.63631 6.48494 8.68172 6.74275 8.6755C7.24742 8.66333 7.72733 8.45429 8.07996 8.09305C8.43259 7.73181 8.62998 7.24701 8.62998 6.74219C8.62998 6.23737 8.43259 5.75256 8.07996 5.39132C7.72733 5.03008 7.24742 4.82105 6.74275 4.80888ZM16.9015 9.94112C15.2894 9.94112 14.2172 10.8243 13.774 11.6635H13.7031V10.1875H10.5385V20.875H13.8438V15.601C13.8438 14.2083 14.1205 12.8594 15.8474 12.8594C17.5484 12.8594 17.5709 14.4321 17.5709 15.6719V20.875H20.875V15.0036C20.875 12.1304 20.263 9.94112 16.9015 9.94112ZM5.125 10.1875V20.875H8.46513V10.1875H5.125Z" fill="white"/>
</svg>
