<svg width="210" height="95" viewBox="0 0 210 95" fill="none" xmlns="http://www.w3.org/2000/svg">
<g clip-path="url(#clip0_142_342)">
<path fill-rule="evenodd" clip-rule="evenodd" d="M17.02 11.1813C14.8481 13.3029 13.806 15.3034 14.3549 16.7785C15.588 20.0902 24.3725 19.4973 33.9747 15.4551C43.5769 11.4129 52.2986 3.74411 49.1289 2.14002L44.9876 0.0439118C52.8714 -0.319179 76.1074 1.33929 68.6682 13.7914C64.5014 20.7655 54.2707 28.2071 41.5138 33.4798C25.4138 40.1356 10.1376 41.0302 3.93243 36.2609C-0.865561 32.5739 4.85614 24.8683 7.47082 21.0023C9.54364 17.938 11.9824 15.1008 14.7536 12.5644C16.1122 11.5918 17.4204 10.6613 18.6977 9.85964C18.1364 10.3657 17.5866 10.6253 17.0191 11.1805L17.02 11.1813Z" fill="white"/>
<path fill-rule="evenodd" clip-rule="evenodd" d="M92.1075 63.925C87.4288 76.4955 77.4483 87.0374 63.7862 92.0444C51.9751 96.3734 39.5461 95.7841 28.7754 91.3244C38.6604 91.177 50.2532 88.6766 62.0095 83.6986C74.3201 78.4855 84.7514 71.4272 92.1075 63.925Z" fill="white"/>
<path fill-rule="evenodd" clip-rule="evenodd" d="M90.528 51.4299C83.1295 59.7995 71.8275 67.805 58.2344 73.5601C45.1557 79.0976 18.3018 88.9414 7.79092 74.5608C2.37063 67.1437 -2.90557 56.4501 1.85795 49.5487C4.31705 45.9871 7.53369 42.4141 11.3868 38.9735C19.0372 40.0303 30.0669 38.2113 41.5148 33.4789C45.435 31.8581 49.0989 30.0225 52.4207 28.0571C53.1403 28.7824 53.6865 29.6103 54.0339 30.5443C55.3147 33.9858 53.729 38.2938 50.0297 42.7175C49.0821 43.0876 48.1328 43.4726 47.1817 43.8743C35.7568 48.6998 25.9071 55.0495 18.5555 61.857C28.2752 61.5991 39.5816 59.1022 51.0436 54.2478C68.8124 46.7238 82.669 35.3548 89.005 24.3542C90.1895 26.4679 91.2272 28.6973 92.0988 31.0363C95.4851 40.132 96.872 44.2506 90.528 51.4282V51.4299Z" fill="white"/>
<path d="M143.485 41.0266C143.414 39.8426 143.343 38.6086 143.271 37.3229C143.2 36.038 143.138 34.7523 143.085 33.4675C143.032 32.1826 142.996 30.9311 142.978 29.7129C142.96 28.4956 142.951 27.3449 142.951 26.2627H142.791C142.185 28.2921 141.508 30.3803 140.76 32.5282C140.012 34.676 139.175 36.9168 138.249 39.2497L131.89 55.8397H128.363L122.539 39.5541C121.684 37.1186 120.9 34.8023 120.188 32.6036C119.476 30.4049 118.87 28.2912 118.372 26.2618H118.265C118.193 28.3921 118.104 30.8022 117.998 33.4911C117.891 36.1801 117.749 38.8095 117.57 41.38L116.608 56.0422H112.173L114.684 21.8477H120.615L126.76 38.3867C127.508 40.517 128.185 42.5211 128.791 44.3988C129.396 46.2756 129.931 48.1113 130.393 49.903H130.554C131.017 48.1779 131.56 46.3686 132.183 44.4742C132.807 42.5798 133.529 40.5513 134.347 38.3867L140.759 21.8477H146.69L148.935 56.0422H144.393L143.484 41.0248L143.485 41.0266ZM166.029 24.3358C164.534 24.3358 163.411 24.8349 162.663 25.8329C161.915 26.8301 161.541 27.9887 161.541 29.3077C161.541 30.5259 161.8 31.6248 162.316 32.6053C162.832 33.5859 163.483 34.5331 164.266 35.4461C166.082 34.4655 167.535 33.4675 168.621 32.4527C169.707 31.438 170.251 30.204 170.251 28.749C170.251 28.2412 170.17 27.7255 170.01 27.202C169.85 26.6775 169.601 26.2048 169.263 25.782C168.924 25.3593 168.497 25.012 167.98 24.7419C167.464 24.4709 166.832 24.3358 166.083 24.3358H166.03H166.029ZM165.121 53.2033C166.653 53.2033 168.051 52.9077 169.316 52.3157C170.58 51.7237 171.64 50.9879 172.495 50.1083C171.96 49.5671 171.32 48.8988 170.572 48.1042C169.823 47.3096 169.005 46.4466 168.113 45.517C167.223 44.5873 166.288 43.5981 165.309 42.5491C164.329 41.5011 163.341 40.4355 162.343 39.3532C161.845 39.6576 161.328 40.0215 160.794 40.4443C160.259 40.867 159.76 41.3572 159.297 41.915C158.834 42.4728 158.451 43.1157 158.148 43.8436C157.845 44.5707 157.694 45.3907 157.694 46.3037C157.694 47.2842 157.872 48.1981 158.228 49.0435C158.585 49.889 159.092 50.6161 159.751 51.2256C160.411 51.8343 161.194 52.3166 162.103 52.6709C163.011 53.0261 164 53.2042 165.068 53.2042H165.121V53.2033ZM178.159 56.044C177.66 55.5704 177.153 55.0714 176.636 54.5469C176.118 54.0224 175.505 53.4059 174.792 52.6955C173.224 54.0821 171.578 55.0801 169.849 55.6888C168.121 56.2975 166.26 56.6018 164.265 56.6018C162.519 56.6018 160.961 56.3396 159.59 55.8151C158.219 55.2906 157.061 54.589 156.117 53.7093C155.173 52.8306 154.451 51.8158 153.953 50.6652C153.453 49.5154 153.204 48.2972 153.204 47.0123C153.204 44.6786 153.864 42.7 155.182 41.0766C156.499 39.4532 158.191 38.1008 160.258 37.0177V36.866C159.332 35.7495 158.601 34.5831 158.067 33.3657C157.532 32.1484 157.265 30.9302 157.265 29.7129C157.265 28.664 157.461 27.6414 157.853 26.6433C158.244 25.6452 158.823 24.7489 159.589 23.9543C160.355 23.1588 161.308 22.5169 162.447 22.0257C163.588 21.5355 164.906 21.2908 166.401 21.2908C167.505 21.2908 168.548 21.4592 169.527 21.7977C170.507 22.1362 171.352 22.6265 172.066 23.2694C172.778 23.9122 173.339 24.6726 173.749 25.5523C174.158 26.4319 174.363 27.4291 174.363 28.5456C174.363 30.3716 173.766 32.0125 172.573 33.4666C171.38 34.9207 169.34 36.3248 166.455 37.6772V37.8289C167.203 38.6744 167.978 39.5286 168.78 40.3908C169.582 41.2529 170.365 42.0983 171.131 42.9271C171.897 43.7559 172.627 44.5505 173.323 45.3118C174.017 46.073 174.649 46.758 175.219 47.3667C176.822 45.0329 177.98 41.7019 178.692 37.372H182.967C182.469 40.0777 181.819 42.479 181.017 44.5759C180.215 46.6729 179.138 48.4822 177.785 50.0048C178.747 50.9853 179.709 51.9579 180.671 52.9384C181.632 53.919 182.648 54.9512 183.717 56.0335L178.159 56.0414L178.159 56.044ZM194.29 25.604H183.337V21.8494H210V25.604H198.992V56.044H194.29V25.604Z" fill="white"/>
<path d="M112.717 66.15L114.906 71.5718L117.095 66.15H118.24V72.7944H117.358V70.2071L117.439 67.4138L115.242 72.7935H114.566L112.373 67.4261L112.46 70.2063V72.7935H111.576V66.1491H112.717V66.15ZM122.995 72.7944H122.111V66.15H122.995V72.7944ZM131.783 70.6886C131.7 71.3911 131.439 71.9331 130.998 72.3146C130.559 72.6962 129.974 72.8882 129.244 72.8882C128.453 72.8882 127.818 72.6067 127.342 72.0436C126.866 71.4797 126.628 70.7255 126.628 69.7818V69.1433C126.628 68.525 126.737 67.9812 126.961 67.5129C127.184 67.0437 127.498 66.6841 127.906 66.4333C128.314 66.1824 128.786 66.0562 129.322 66.0562C130.034 66.0562 130.605 66.2526 131.033 66.6464C131.464 67.0411 131.713 67.5857 131.784 68.2838H130.895C130.82 67.7532 130.653 67.3691 130.398 67.1331C130.141 66.8946 129.783 66.7762 129.323 66.7762C128.759 66.7762 128.317 66.9832 127.996 67.398C127.676 67.8111 127.516 68.4013 127.516 69.1644V69.8081C127.516 70.5308 127.668 71.1035 127.971 71.5306C128.276 71.9559 128.7 72.1691 129.246 72.1691C129.736 72.1691 130.112 72.0586 130.375 71.8384C130.637 71.6192 130.811 71.2359 130.896 70.6895H131.785L131.783 70.6886ZM139.02 69.7292H136.119V72.0752H139.489V72.7944H135.235V66.15H139.443V66.8692H136.119V69.0091H139.02V69.7283V69.7292Z" fill="white"/>
<path d="M148.688 71.0113C148.688 70.6921 148.778 70.3974 148.957 70.1299C149.138 69.8615 149.48 69.5502 149.985 69.1941C149.688 68.8345 149.489 68.546 149.387 68.3267C149.286 68.1075 149.237 67.8909 149.237 67.6742C149.237 67.1682 149.386 66.7726 149.687 66.4876C149.987 66.2008 150.395 66.0579 150.91 66.0579C151.369 66.0579 151.75 66.192 152.051 66.4578C152.351 66.7244 152.502 67.0594 152.502 67.4637C152.502 67.7321 152.433 67.9794 152.296 68.2048C152.16 68.432 151.92 68.6705 151.582 68.9196L151.088 69.281L152.578 71.0473C152.786 70.6518 152.892 70.2124 152.892 69.7282H153.66C153.66 70.5053 153.471 71.149 153.095 71.6595L154.05 72.7952H153.03L152.583 72.2716C152.358 72.4725 152.09 72.6251 151.786 72.7312C151.482 72.8356 151.171 72.8891 150.855 72.8891C150.202 72.8891 149.678 72.718 149.282 72.3734C148.886 72.0287 148.688 71.5753 148.688 71.0122V71.0113ZM150.855 72.1962C151.306 72.1962 151.719 72.0261 152.092 71.6849L150.459 69.7458L150.306 69.8545C149.794 70.2281 149.539 70.6132 149.539 71.0087C149.539 71.3683 149.656 71.6551 149.891 71.8717C150.125 72.0883 150.447 72.1953 150.854 72.1953L150.855 72.1962ZM150.087 67.6435C150.087 67.9365 150.268 68.3022 150.629 68.7416L151.171 68.3618C151.38 68.2154 151.523 68.0768 151.598 67.9444C151.675 67.8102 151.714 67.6497 151.714 67.4611C151.714 67.2568 151.637 67.0875 151.483 66.9516C151.331 66.8165 151.137 66.7472 150.904 66.7472C150.653 66.7472 150.454 66.8314 150.306 67.0015C150.158 67.1708 150.086 67.3848 150.086 67.6427L150.087 67.6435Z" fill="white"/>
<path d="M167.247 66.8702H165.094V72.7954H164.216V66.8702H162.069V66.151H167.247V66.8702ZM173.179 70.1135H171.605V72.7954H170.719V66.151H172.936C173.69 66.151 174.27 66.322 174.677 66.6632C175.083 67.0044 175.286 67.5008 175.286 68.1524C175.286 68.5672 175.173 68.9286 174.949 69.2364C174.723 69.5434 174.411 69.774 174.009 69.9266L175.582 72.741V72.7954H174.634L173.18 70.1135H173.179ZM171.605 69.3934H172.963C173.401 69.3934 173.75 69.2811 174.009 69.0558C174.268 68.8304 174.398 68.5278 174.398 68.1507C174.398 67.7393 174.275 67.4236 174.028 67.2035C173.781 66.9833 173.425 66.8728 172.959 66.8702H171.605V69.3934ZM182.699 71.0571H179.893L179.264 72.7954H178.353L180.91 66.151H181.683L184.245 72.7954H183.339L182.7 71.0571H182.699ZM180.16 70.3371H182.438L181.297 67.2315L180.161 70.3371H180.16ZM189.446 71.6316L191.358 66.1501H192.324L189.84 72.7945H189.058L186.579 66.1501H187.542L189.447 71.6316H189.446ZM199.487 69.7293H196.586V72.0754H199.957V72.7945H195.702V66.1501H199.911V66.8693H196.586V69.0093H199.487V69.7284V69.7293ZM204.426 72.0754H207.598V72.7945H203.537V66.1501H204.426V72.0754Z" fill="white"/>
</g>
<defs>
<clipPath id="clip0_142_342">
<rect width="210" height="95" fill="white"/>
</clipPath>
</defs>
</svg>
