<svg width="31" height="29" viewBox="0 0 31 29" fill="none" xmlns="http://www.w3.org/2000/svg">
<path d="M20.9438 19.8367L21.6278 19.1572L20.0393 17.5612L19.3583 18.2407L20.9438 19.8367ZM23.9213 18.8722L26.7878 20.4307L27.8603 18.4537L24.9953 16.8967L23.9213 18.8722ZM27.3383 23.5267L25.2083 25.6462L26.7938 27.2407L28.9238 25.1227L27.3383 23.5267ZM23.9093 26.3272C21.7343 26.5312 16.1093 26.3497 10.0163 20.2927L8.42926 21.8872C15.0773 28.4977 21.4058 28.8217 24.1193 28.5682L23.9093 26.3272ZM10.0163 20.2927C4.20976 14.5177 3.24676 9.66218 3.12676 7.55468L0.87976 7.68218C1.02976 10.3342 2.22226 15.7162 8.42926 21.8872L10.0163 20.2927ZM12.0788 11.0227L12.5093 10.5937L10.9253 8.99918L10.4948 9.42668L12.0788 11.0227ZM12.8513 5.14118L10.9613 2.61518L9.15976 3.96518L11.0498 6.48968L12.8513 5.14118ZM4.59976 2.06468L2.24476 4.40468L3.83176 6.00068L6.18526 3.66068L4.59976 2.06468ZM11.2868 10.2247C10.4918 9.42668 10.4918 9.42668 10.4918 9.42968H10.4888L10.4843 9.43568C10.4134 9.50797 10.3497 9.58682 10.2938 9.67118C10.2128 9.79118 10.1243 9.94868 10.0493 10.1482C9.86661 10.6632 9.82111 11.2168 9.91726 11.7547C10.1183 13.0522 11.0123 14.7667 13.3013 17.0437L14.8883 15.4477C12.7448 13.3177 12.2348 12.0217 12.1403 11.4097C12.0953 11.1187 12.1418 10.9747 12.1553 10.9417C12.1628 10.9207 12.1658 10.9192 12.1553 10.9327C12.142 10.9535 12.127 10.9731 12.1103 10.9912L12.0953 11.0062C12.0904 11.0108 12.0854 11.0154 12.0803 11.0197L11.2868 10.2247ZM13.3013 17.0437C15.5918 19.3207 17.3153 20.2087 18.6143 20.4067C19.2788 20.5087 19.8143 20.4277 20.2208 20.2762C20.4481 20.1921 20.6607 20.0726 20.8508 19.9222C20.8766 19.9006 20.9016 19.8781 20.9258 19.8547L20.9363 19.8457L20.9408 19.8412L20.9423 19.8382C20.9423 19.8382 20.9438 19.8367 20.1503 19.0387C19.3553 18.2407 19.3598 18.2392 19.3598 18.2392L19.3628 18.2362L19.3658 18.2332L19.3748 18.2257L19.3898 18.2107C19.4078 18.1945 19.4268 18.1795 19.4468 18.1657C19.4618 18.1552 19.4573 18.1597 19.4363 18.1687C19.3988 18.1822 19.2518 18.2287 18.9563 18.1837C18.3353 18.0877 17.0303 17.5777 14.8883 15.4477L13.3013 17.0437ZM10.9613 2.61368C9.43126 0.573684 6.42526 0.249684 4.59976 2.06468L6.18526 3.66068C6.98326 2.86718 8.39926 2.94968 9.15976 3.96518L10.9613 2.61368ZM3.12826 7.55618C3.09826 7.03718 3.33676 6.49418 3.83176 6.00218L2.24326 4.40618C1.43776 5.20718 0.80326 6.34118 0.87976 7.68218L3.12826 7.55618ZM25.2083 25.6462C24.7973 26.0572 24.3533 26.2882 23.9108 26.3287L24.1193 28.5682C25.2218 28.4647 26.1233 27.9097 26.7953 27.2422L25.2083 25.6462ZM12.5093 10.5937C13.9868 9.12518 14.0963 6.80468 12.8528 5.14268L11.0513 6.49118C11.6558 7.29968 11.5658 8.36018 10.9238 9.00068L12.5093 10.5937ZM26.7893 20.4322C28.0148 21.0982 28.2053 22.6672 27.3398 23.5282L28.9268 25.1227C30.9368 23.1232 30.3173 19.7887 27.8618 18.4552L26.7893 20.4322ZM21.6278 19.1587C22.2038 18.5857 23.1308 18.4447 23.9228 18.8737L24.9968 16.8982C23.3708 16.0132 21.3548 16.2577 20.0408 17.5627L21.6278 19.1587Z" fill="white"/>
</svg>
