<svg width="2460" height="406" viewBox="0 0 2460 406" fill="none" xmlns="http://www.w3.org/2000/svg">
<path d="M60.6271 229.647C60.6271 241.917 64.5528 253.018 72.3542 262.948C80.8362 273.841 91.393 279.358 104.083 279.358C124.292 279.358 138.642 273.227 147.124 260.957C154.294 250.686 157.813 235.173 157.813 214.283C157.813 195.741 154.427 180.02 147.746 167.269C145.057 162.092 138.849 153.754 129.122 142.173C122.433 134.242 119.047 126.875 119.047 119.972C119.047 109.08 124.773 100.535 136.218 94.3291C145.53 89.368 155.664 86.8874 166.702 86.8874L167.947 90.4714C154.842 95.7062 148.36 105.919 148.36 121.009C148.36 132.732 156.012 147.69 171.466 165.958C186.919 184.16 194.638 199.806 194.638 212.906C194.638 240.208 185.807 261.231 168.154 275.923C152.087 289.23 130.915 295.917 104.498 295.917C79.666 295.917 60.6354 288.956 47.1821 275.102C33.8035 261.239 27.1142 241.868 27.1142 216.913V67.0348C27.1142 52.1432 25.3879 40.0806 22.0764 30.9134C19.4538 24.0193 15.8021 18.436 10.9054 14.1635C7.32008 11.4755 3.66004 8.85395 0.00830078 6.29874C0.979331 6.02496 1.4607 5.05431 1.4607 3.47805C11.254 1.13024 18.1508 0.0268555 22.0847 0.0268555C31.878 0.0268555 40.775 3.95093 48.7092 11.9567C56.7098 19.8878 60.6437 29.3288 60.6437 40.2216V229.672L60.6271 229.647ZM221.254 245.991C221.254 237.645 224.839 229.647 231.877 221.998C238.981 214.275 246.774 210.483 255.256 210.483C255.879 211.379 256.153 212.275 256.012 213.105C253.049 221.857 251.596 231.373 251.596 241.785C251.596 251.715 255.049 260.467 261.871 267.984C269.316 276.255 278.561 280.328 289.807 280.328C304.837 280.328 316.772 274.878 325.536 263.993C333.329 254.27 337.255 242.623 337.255 229.033C337.255 199.25 325.669 176.842 302.497 161.818C291.052 154.642 279.673 147.482 268.361 140.373C257.331 132.45 251.812 124.452 251.812 116.521C251.812 107.006 256.501 99.4229 265.946 93.906C273.88 89.2186 282.918 86.8791 292.986 86.8791L294.23 90.4631C284.371 95.225 279.474 101.63 279.474 109.901C279.474 117.832 286.371 126.867 300.098 136.93C309.817 142.994 319.477 149.059 329.196 155.131C356.924 173.192 370.784 195.6 370.784 222.355C370.784 240.557 363.547 256.958 348.99 271.642C332.997 287.845 313.269 295.909 290.023 295.909C269.673 295.909 253.331 291.844 241.056 283.78C227.885 275.019 221.262 262.409 221.262 245.999L221.254 245.991ZM554.931 42.1961V317.279C554.649 343.404 545.346 364.294 526.996 379.949C510.712 393.944 491.2 400.905 468.435 400.905C442.715 400.905 422.78 394.492 408.571 381.533C396.363 370.499 390.221 356.852 390.221 340.517C390.221 319.42 403.26 301.774 429.395 287.637L432.847 290.873C428.913 303.765 426.979 316.724 426.979 329.616C426.979 365.604 440.914 383.532 468.775 383.532C485.117 383.532 497.948 378.364 507.326 368.019C516.638 357.615 521.327 344.026 521.327 327.21V175.117C498.985 164.091 479.05 158.574 461.53 158.574C442.018 158.574 432.291 168.364 432.424 188.009C432.557 198.28 436.15 208.55 443.113 218.962L442.358 222.961L413.252 220.132C409.459 219.717 406.355 215.926 403.94 208.617C401.94 202.552 400.903 196.62 400.903 190.83C400.903 173.731 406.97 160.839 419.112 152.078C429.594 144.562 443.321 140.771 460.285 140.771C482.146 140.771 502.496 146.42 521.319 157.728V69.0673C521.319 54.1094 519.667 42.0468 516.281 32.8713C513.733 26.0435 510.007 20.5266 505.176 16.3205C501.666 13.6325 498.072 10.9446 494.487 8.25662C495.242 8.12389 495.657 7.15324 495.657 5.43594C505.517 3.29553 512.347 2.20044 516.281 2.20044C526.141 2.20044 534.971 6.19918 542.972 14.1303C550.906 22.0614 554.906 31.436 554.906 42.1878L554.931 42.1961ZM585.548 245.991C585.548 237.645 589.133 229.647 596.171 221.998C603.275 214.275 611.068 210.483 619.55 210.483C620.173 211.379 620.447 212.275 620.306 213.105C617.343 221.857 615.89 231.373 615.89 241.785C615.89 251.715 619.343 260.467 626.165 267.984C633.61 276.255 642.855 280.328 654.101 280.328C669.131 280.328 681.066 274.878 689.83 263.993C697.623 254.27 701.549 242.623 701.549 229.033C701.549 199.25 689.963 176.842 666.791 161.818C655.346 154.642 643.967 147.482 632.655 140.373C621.625 132.45 616.106 124.452 616.106 116.521C616.106 107.006 620.795 99.4229 630.24 93.906C638.174 89.2186 647.212 86.8791 657.28 86.8791L658.524 90.4631C648.665 95.225 643.768 101.63 643.768 109.901C643.768 117.832 650.665 126.867 664.392 136.93C674.111 142.994 683.771 149.059 693.49 155.131C721.218 173.192 735.078 195.6 735.078 222.355C735.078 240.557 727.841 256.958 713.284 271.642C697.291 287.845 677.563 295.909 654.317 295.909C633.967 295.909 617.625 291.844 605.35 283.78C592.179 275.019 585.556 262.409 585.556 245.999L585.548 245.991ZM919.225 4.41551L920.811 2.20874C946.813 3.92604 959.776 10.2726 959.776 21.1654C959.776 33.0206 946.398 41.9224 919.566 47.8458C866.117 59.4272 830.662 79.9021 813.283 109.27L813.69 110.241C823.417 106.242 832.521 104.177 841.003 104.177C855.826 104.177 867.902 109.071 877.347 118.861C886.791 128.65 891.489 141.609 891.489 157.736C892.319 158.019 893.281 158.019 894.311 157.736C894.311 139.95 900.66 126.161 913.349 116.306C923.832 108.242 935.974 104.168 949.701 104.168C969.354 104.168 986.044 111.751 999.771 126.85C1014.46 142.837 1021.84 163.32 1021.84 188.2C1021.84 225.64 1001.08 260.658 959.627 293.27L956.39 293.893L947.286 287.206V283.763C972.458 262.591 985.081 231.779 985.081 191.236C985.081 167.659 980.458 149.532 971.288 136.706C963.909 126.087 955.353 120.785 945.626 120.785C921.001 120.785 908.585 141.883 908.453 184.209C908.453 189.171 908.453 196.554 908.453 206.41L905.008 207.58H878.177L874.94 206.41C874.94 202.478 874.94 194.961 874.94 183.795C874.94 141.741 863.495 120.785 840.597 120.785C828.181 120.785 818.255 127.812 810.669 141.949C803.424 155.322 799.772 171.798 799.772 191.452C799.772 232.269 811.98 262.741 836.323 282.933V285.762L827.633 294.656H824.396C782.393 268.39 761.429 231.779 761.562 184.765C761.562 148.984 773.355 117.475 796.942 90.2474C808.113 77.2141 821.151 66.5287 835.982 58.1911C846.879 51.9856 862.748 45.1578 883.637 37.7826C891.987 34.8209 900.394 31.9172 908.884 29.0965C918.055 25.0231 922.612 20.1284 922.612 14.346C922.612 11.3843 921.508 8.07411 919.234 4.41551H919.225ZM1270.34 121.2C1256.48 121.2 1240.27 128.642 1221.65 143.608C1231.51 159.188 1236.4 177.523 1236.4 198.553C1236.4 227.233 1227.43 250.537 1209.43 268.531C1191.43 286.526 1168.74 295.486 1141.22 295.486C1112.25 295.486 1089.21 286.045 1072.12 267.221C1056.25 249.848 1048.25 227.781 1048.25 201.175C1048.25 172.363 1057.42 148.984 1075.64 131.064C1093.91 113.136 1117.56 104.177 1146.67 104.177C1172.26 104.177 1193.36 112.796 1209.91 129.886C1210.19 127.821 1216.53 123.548 1228.95 116.928C1244.67 108.449 1260.81 104.168 1277.44 104.168C1301.23 104.168 1321.23 112.506 1337.44 129.057C1353.99 146.155 1362.27 167.941 1362.27 194.488C1362.27 222.753 1352.69 246.878 1333.58 266.806C1315.31 286.177 1293.93 295.9 1269.51 295.9C1268.89 295.9 1268.47 295.145 1268.34 293.694C1274.68 289.761 1280.96 285.829 1287.31 281.971C1297.94 274.529 1306.28 265.495 1312.21 254.876C1320.55 240.466 1324.69 222.961 1324.69 202.345C1324.69 182.841 1320.34 165.12 1311.59 149.266C1301.17 130.509 1287.45 121.2 1270.34 121.2ZM1198.82 207.588C1198.82 184.699 1194.06 165.12 1184.48 148.851C1173.44 130.168 1158.35 120.794 1139.24 120.794C1121.59 120.794 1107.93 128.31 1098.21 143.401C1090 156.293 1085.86 172.429 1085.86 191.659C1085.86 215.511 1090.62 235.504 1100 251.64C1110.97 270.39 1126.49 279.698 1146.7 279.698C1164.36 279.698 1177.8 272.115 1187.11 256.875C1194.91 243.983 1198.84 227.573 1198.84 207.588H1198.82ZM1566.16 313.48C1566.16 338.227 1556.64 359.051 1537.53 375.875C1518.49 392.7 1495.25 401.112 1467.94 401.112C1443.11 401.112 1422.63 393.737 1406.28 378.911C1391.38 365.19 1383.86 349.128 1383.86 330.86C1383.86 318.043 1385.72 308.179 1389.51 301.152C1394 292.806 1402 286.6 1413.58 282.535L1418.2 283.365C1416.75 291.155 1415.99 301.907 1415.99 315.496C1415.99 335.141 1420.34 351.277 1429.1 363.962C1438.96 377.957 1452.83 384.993 1470.75 384.993C1488.96 384.993 1503.51 377.335 1514.42 362.17C1524.07 348.796 1528.97 333.075 1528.97 314.874C1528.97 299.426 1525.11 286.534 1517.45 276.338C1508.83 265.03 1497.04 259.306 1482.07 259.306H1459.24L1456.62 256.892V243.377L1460.06 240.756H1485.31C1498.62 240.756 1508.83 233.928 1515.79 220.347C1521.86 208.766 1524.9 194.148 1524.9 176.502C1524.9 161.055 1520.55 148.163 1511.79 137.958C1501.93 126.244 1488.27 120.379 1470.75 120.379C1452.13 120.379 1438.14 127.895 1428.76 142.994C1421.31 155.123 1417.59 170.156 1417.59 188.009C1417.59 194.347 1418.14 200.279 1419.24 205.796L1416.82 209.654C1409.38 209.521 1402.48 206.136 1396 199.524C1389.52 192.97 1386.27 185.114 1386.27 176.079C1386.27 157.952 1393.72 141.816 1408.55 127.821C1425.24 112.108 1447.03 104.177 1474.01 104.177C1501.45 104.177 1523.11 111.618 1538.83 126.443C1553.25 139.891 1560.49 156.774 1560.49 177.116C1560.49 207.032 1545.73 230.195 1516.21 246.613V249.027C1528.63 253.988 1539.24 261.023 1548.14 270.05C1560.14 282.535 1566.14 297.012 1566.14 313.48H1566.16ZM1761.75 265.984C1761.75 307.349 1756.29 338.509 1745.54 359.54C1731.12 387.116 1706.22 400.905 1670.78 400.905C1645.19 400.905 1624.63 393.048 1609.19 377.261C1595.54 363.406 1588.77 347.204 1588.77 328.587C1588.77 307.905 1599.67 291.843 1621.46 280.536L1625.54 281.78C1622.85 290.815 1621.46 303.773 1621.46 320.731C1621.46 336.659 1625.54 350.647 1633.6 362.784C1643.32 377.402 1656.78 384.777 1674.02 384.777C1710.37 384.777 1728.43 351.825 1728.16 285.986V220.97C1728.43 183.952 1726.3 159.056 1721.68 146.445C1715.4 129.488 1702.09 121.009 1681.88 121.009C1649.06 121.009 1632.58 142.729 1632.58 186.225C1632.58 199.118 1633.41 209.247 1635.06 216.49L1632.99 219.319C1623.06 219.319 1614.85 214.631 1608.37 205.182C1602.71 196.977 1599.88 188.017 1599.88 178.369C1599.88 160.3 1607.47 143.898 1622.72 129.073C1639.41 112.522 1660.1 104.185 1684.72 104.185C1736.04 104.185 1761.76 132.242 1761.76 188.225V265.993L1761.75 265.984ZM1979.14 104.177C1992.6 104.177 2003.63 108.524 2012.11 117.135C2022.32 127.754 2027.42 143.948 2027.42 165.601C2028.11 166.157 2029.01 166.157 2030.04 165.601C2030.04 148.362 2036.04 133.819 2047.98 121.963C2059.84 110.108 2074.11 104.177 2090.67 104.177C2106.6 104.177 2120.32 107.968 2131.91 115.551C2148.88 126.584 2157.36 144.305 2157.36 168.638C2157.36 189.668 2150.87 207.729 2137.84 222.969C2124.88 238.201 2109.77 245.783 2092.53 245.783L2091.91 243.784C2098.11 236.757 2104.26 229.788 2110.25 222.753C2118.6 210.135 2122.8 194.488 2122.8 175.946C2122.8 155.19 2118.46 140.165 2109.7 130.857C2103.63 124.17 2096.25 120.794 2087.63 120.794C2072.94 120.794 2061.7 128.028 2053.9 142.579C2047.98 153.887 2045.01 167.26 2045.01 182.567C2045.29 200.221 2045.29 212.076 2045.01 218.141L2041.77 220.961H2014.52L2011.29 218.141C2011.15 211.106 2011.22 200.213 2011.49 185.396C2011.78 142.032 2000.32 120.379 1977.15 120.379C1966.11 120.379 1957.07 126.103 1950.18 137.618C1943.21 149.125 1939.7 164.232 1939.55 182.774L1939.35 218.141L1936.72 220.762H1908.45L1905.83 217.527C1905.89 209.869 1905.96 198.985 1905.96 184.981C1905.96 166.854 1902.85 152.029 1896.51 140.588C1889.76 128.036 1880.3 121.764 1868.24 121.764C1854.44 121.764 1843.61 130.591 1835.69 148.237C1829.48 162.092 1826.38 177.125 1826.38 193.327C1826.38 210.765 1829 225.317 1834.23 236.898C1839.69 248.894 1848.86 260.268 1861.96 271.02C1874.24 281.017 1891.89 291.362 1915.07 302.18L2000.73 339.339C2031.21 352.787 2048.38 360.851 2052.32 363.539C2066.05 373.121 2073.49 386.843 2074.73 404.771L2072.53 406.015C2051.9 391.953 2018.32 378.165 1971.91 364.584C1948.18 357.549 1921.83 354.106 1892.87 354.106C1884.94 354.106 1877.28 356.238 1870.04 360.519C1870.04 351.493 1871.48 345.42 1874.39 342.184C1877.28 338.941 1883.43 337.29 1892.87 337.29C1897.97 337.29 1903.42 337.564 1909.21 338.119C1916.8 338.949 1921.07 339.364 1922.18 339.364C1923.01 339.231 1924.24 339.231 1926.03 339.364C1885.96 321.436 1857.62 306.204 1840.92 293.727C1805.89 267.32 1788.37 236.782 1788.37 202.171C1788.37 173.142 1796.85 149.291 1813.89 130.683C1829.75 113.029 1848.99 104.21 1871.62 104.21C1886.04 104.21 1898.25 110.208 1908.11 122.204C1918.04 134.2 1923.01 148.677 1923.01 165.634C1923.77 165.361 1924.66 165.361 1925.63 165.634C1925.63 148.81 1929.98 134.748 1938.73 123.44C1948.45 110.614 1961.9 104.201 1979.15 104.201L1979.14 104.177ZM2368.48 104.177C2388.96 104.177 2406.27 111.618 2420.41 126.443C2435.52 142.297 2443.03 163.054 2443.03 188.631C2443.03 216.141 2430.48 243.577 2405.23 271.02C2426.13 256.402 2443.24 249.027 2456.62 249.027L2459.03 250.678L2455.79 268.606L2453.72 269.021C2443.78 269.021 2439.58 268.888 2441.24 268.606C2423.17 271.435 2408 276.537 2395.79 283.78C2389.45 287.704 2384.48 291.014 2380.82 293.71L2377.17 294.258L2368.48 287.646V284.194C2393.8 261.72 2406.49 231.522 2406.49 193.675C2406.49 170.031 2402.07 151.481 2393.17 138.182C2385.73 126.875 2376.89 121.217 2366.69 121.217C2342.13 121.217 2329.79 142.173 2329.52 184.234C2329.52 191.751 2329.52 199.126 2329.52 206.435L2326.28 207.605H2299.38L2296.15 206.435V183.82C2296.15 141.766 2284.35 120.81 2260.83 120.81C2250.56 120.81 2241.74 126.12 2234.35 136.731C2225.31 149.415 2220.83 167.551 2220.83 191.261C2220.83 210.151 2224.27 228.079 2231.17 245.103C2238.14 262.135 2246.96 274.745 2257.79 282.95V286.186L2248.9 294.664H2245.25C2230.01 285.912 2216.83 273.775 2205.66 258.128C2191.24 237.927 2184 216.216 2184 192.912C2184 167.061 2192.42 145.408 2209.11 128.036C2224.42 112.182 2241.66 104.185 2260.83 104.185C2275.66 104.185 2287.66 108.457 2296.98 116.944C2307.32 126.385 2312.56 139.825 2312.56 157.347C2313.46 156.932 2314.36 156.932 2315.19 157.347C2315.19 139.833 2321.6 126.112 2334.36 116.115C2344.63 108.184 2356.01 104.185 2368.49 104.185L2368.48 104.177Z" fill="white" fill-opacity="0.03"/>
</svg>
